<svg width="231" height="48" viewBox="0 0 231 48" fill="none" xmlns="http://www.w3.org/2000/svg">
  <path d="M0.425781 12.6316C0.425781 5.65535 6.08113 0 13.0574 0H35.7942C42.7704 0 48.4258 5.65535 48.4258 12.6316V35.3684C48.4258 42.3446 42.7704 48 35.7942 48H13.0574C6.08113 48 0.425781 42.3446 0.425781 35.3684V12.6316Z" fill="#465FFF"/>

  <!-- Graduation hat icon -->
  <path d="M24.5 10.5L13.5 15.6L24.5 20.7L35.5 15.6L24.5 10.5Z" fill="white"/>
  <path d="M17.3 17.8V22.8C17.3 25.6 20.5 27.8 24.5 27.8C28.5 27.8 31.7 25.6 31.7 22.8V17.8L24.5 21.2L17.3 17.8Z" fill="white" fill-opacity="0.92"/>
  <path d="M35 16.2V22.9" stroke="white" stroke-width="1.7" stroke-linecap="round"/>
  <circle cx="35" cy="23.8" r="1.2" fill="white"/>
</svg>