<svg width="154" height="32" viewBox="0 0 154 32" fill="none" xmlns="http://www.w3.org/2000/svg">
  <path d="M0 8.42105C0 3.77023 3.77023 0 8.42105 0H23.5789C28.2298 0 32 3.77023 32 8.42105V23.5789C32 28.2298 28.2298 32 23.5789 32H8.42105C3.77023 32 0 28.2298 0 23.5789V8.42105Z" fill="#465FFF"/>

  <!-- Graduation hat icon -->
  <path d="M16 7.4L7.6 11.2L16 15L24.4 11.2L16 7.4Z" fill="white"/>
  <path d="M10.6 12.7V16.4C10.6 18.5 13.1 20.1 16 20.1C18.9 20.1 21.4 18.5 21.4 16.4V12.7L16 15.2L10.6 12.7Z" fill="white" fill-opacity="0.92"/>
  <path d="M24.2 12.1V17.1" stroke="white" stroke-width="1.4" stroke-linecap="round"/>
  <circle cx="24.2" cy="17.8" r="1.05" fill="white"/>

  <!-- Brand name -->
  <text x="44" y="21" fill="white" font-family="Inter, Arial, sans-serif" font-size="18" font-weight="700" letter-spacing="0.5">
    ISLIIT
  </text>
</svg>