<svg width="32" height="32" viewBox="0 0 32 32" fill="none" xmlns="http://www.w3.org/2000/svg">
  <path d="M0 8.42105C0 3.77023 3.77023 0 8.42105 0H23.5789C28.2298 0 32 3.77023 32 8.42105V23.5789C32 28.2298 28.2298 32 23.5789 32H8.42105C3.77023 32 0 28.2298 0 23.5789V8.42105Z" fill="#465FFF"/>

  <!-- Graduation hat icon -->
  <path d="M16 7.2L7.4 11.3L16 15.4L24.6 11.3L16 7.2Z" fill="white"/>
  <path d="M10.7 12.6V16.1C10.7 18.1 13.2 19.7 16 19.7C18.8 19.7 21.3 18.1 21.3 16.1V12.6L16 15.1L10.7 12.6Z" fill="white" fill-opacity="0.92"/>
  <path d="M24.2 12.1V17" stroke="white" stroke-width="1.4" stroke-linecap="round"/>
  <circle cx="24.2" cy="17.7" r="1.05" fill="white"/>
</svg>